<?xml version="1.0" standalone="no"?>
<!DOCTYPE svg PUBLIC "-//W3C//DTD SVG 20010904//EN"
 "http://www.w3.org/TR/2001/REC-SVG-20010904/DTD/svg10.dtd">
<svg version="1.0" xmlns="http://www.w3.org/2000/svg"
 width="700.000000pt" height="700.000000pt" viewBox="0 0 700.000000 700.000000"
 preserveAspectRatio="xMidYMid meet">
<metadata>
Created by potrace 1.11, written by Peter Selinger 2001-2013
</metadata>
<g transform="translate(0.000000,700.000000) scale(0.100000,-0.100000)"
fill="#000000" stroke="none">
<path d="M3215 6989 c-720 -62 -1384 -330 -1944 -786 -134 -110 -361 -336
-474 -474 -626 -766 -899 -1742 -761 -2724 80 -575 307 -1128 656 -1597 764
-1027 2028 -1552 3303 -1372 1024 145 1924 730 2477 1611 100 161 241 447 307
623 302 815 293 1721 -26 2525 -249 628 -686 1183 -1239 1571 -594 416 -1307
638 -2034 633 -91 -1 -210 -6 -265 -10z m-1195 -1193 c109 -40 207 -105 286
-189 80 -85 126 -158 159 -254 103 -296 16 -613 -222 -813 -125 -104 -246
-150 -415 -157 -146 -7 -235 11 -356 72 -184 92 -320 261 -374 464 -25 96 -28
257 -5 353 63 260 265 470 519 538 111 30 305 23 408 -14z m3364 14 c255 -65
460 -276 522 -538 23 -95 21 -256 -5 -354 -68 -258 -282 -467 -536 -523 -156
-35 -371 -6 -493 65 -34 21 -35 21 -56 2 -11 -10 -99 -85 -194 -167 l-172
-147 87 -50 c206 -117 393 -258 555 -417 152 -150 154 -191 18 -360 -356 -443
-858 -675 -1510 -698 -228 -8 -451 21 -663 87 l-59 18 -244 -209 c-135 -116
-244 -213 -242 -217 2 -4 20 -41 40 -82 56 -114 72 -186 72 -325 0 -141 -15
-209 -76 -333 -29 -59 -62 -106 -114 -161 -88 -94 -172 -150 -285 -193 -109
-40 -273 -50 -394 -23 -254 56 -468 265 -537 523 -25 97 -28 258 -5 354 51
209 191 389 378 483 122 61 211 79 357 72 122 -5 179 -19 283 -72 51 -25 52
-25 73 -7 12 10 99 85 194 166 94 81 172 151 172 154 0 4 -39 27 -86 51 -262
134 -632 440 -665 550 -22 75 -3 111 124 236 321 315 679 525 1057 620 174 44
310 59 520 59 213 -1 304 -12 512 -65 l117 -30 241 206 c133 114 240 210 238
213 -2 4 -20 41 -40 82 -88 181 -100 381 -33 573 33 96 79 169 159 254 98 104
208 170 351 208 77 21 248 19 339 -5z m0 -3210 c255 -65 460 -276 522 -538 23
-95 21 -256 -5 -354 -68 -261 -280 -466 -539 -524 -118 -26 -283 -16 -391 24
-113 43 -197 99 -285 193 -186 197 -243 479 -151 742 69 198 249 378 443 441
105 34 103 34 223 35 76 1 128 -5 183 -19z"/>
<path d="M1651 5490 c-239 -88 -345 -343 -236 -566 35 -72 113 -147 194 -187
62 -30 71 -32 181 -32 108 0 119 2 180 31 95 46 153 101 197 192 36 73 38 80
38 176 0 93 -3 107 -32 168 -41 88 -113 160 -201 201 -59 28 -79 32 -167 34
-81 3 -111 -1 -154 -17z"/>
<path d="M5085 5497 c-118 -39 -207 -117 -257 -224 -77 -163 -32 -364 105
-477 24 -20 70 -48 103 -63 54 -26 69 -28 174 -28 110 0 119 2 181 32 315 155
314 584 0 735 -59 29 -77 32 -166 35 -63 2 -115 -2 -140 -10z"/>
<path d="M3306 4060 c-389 -45 -696 -187 -1043 -484 -94 -80 -95 -69 12 -156
257 -209 639 -393 960 -462 95 -20 137 -23 310 -23 334 1 567 51 810 173 157
79 334 214 432 330 l43 50 -58 53 c-261 239 -625 427 -960 495 -141 28 -371
39 -506 24z m325 -116 c125 -37 232 -129 289 -249 84 -175 43 -393 -99 -528
-184 -176 -458 -176 -642 0 -252 241 -153 667 181 774 70 23 199 24 271 3z"/>
<path d="M1652 2282 c-202 -72 -319 -282 -268 -482 31 -121 110 -216 226 -273
62 -30 71 -32 180 -32 108 0 119 2 180 31 95 46 153 101 197 192 36 73 38 80
38 176 0 93 -3 107 -32 168 -41 88 -113 160 -201 201 -59 28 -79 32 -167 34
-78 3 -112 -1 -153 -15z"/>
<path d="M5085 2287 c-118 -39 -207 -117 -257 -224 -77 -163 -32 -364 105
-477 24 -20 70 -48 103 -63 54 -26 69 -28 174 -28 109 0 118 2 181 32 37 18
88 55 117 84 199 199 142 524 -115 651 -60 29 -77 33 -167 35 -64 2 -116 -2
-141 -10z"/>
</g>
</svg>
