<?xml version="1.0" encoding="UTF-8" standalone="no"?>
<svg
   xmlns:dc="http://purl.org/dc/elements/1.1/"
   xmlns:cc="http://creativecommons.org/ns#"
   xmlns:rdf="http://www.w3.org/1999/02/22-rdf-syntax-ns#"
   xmlns:svg="http://www.w3.org/2000/svg"
   xmlns="http://www.w3.org/2000/svg"
   height="75"
   width="75"
   id="svg1008"
   viewBox="0 0 75 75"
   y="0px"
   x="0px"
   version="1.1">
  <metadata
     id="metadata1014">
    <rdf:RDF>
      <cc:Work
         rdf:about="">
        <dc:format>image/svg+xml</dc:format>
        <dc:type
           rdf:resource="http://purl.org/dc/dcmitype/StillImage" />
        <dc:title></dc:title>
      </cc:Work>
    </rdf:RDF>
  </metadata>
  <defs
     id="defs1012" />
  <rect
     ry="37.5"
     y="0"
     x="0"
     height="75"
     width="75"
     id="rect5262"
     style="opacity:0.9;fill:#31ac94;fill-opacity:1;stroke:none;stroke-width:0.74852335;stroke-linecap:round;stroke-linejoin:round;stroke-miterlimit:4;stroke-dasharray:none;stroke-opacity:1" />
  <path
     style="color:#000000;text-indent:0;text-transform:none;direction:ltr;baseline-shift:baseline;display:inline;overflow:visible;visibility:visible;fill:#f1f3f3;fill-opacity:1;stroke:none;stroke-width:0.55466652;enable-background:accumulate"
     d="m 19.195997,12.479317 c -4.180549,0 -7.695999,3.467609 -7.695999,7.834667 0,4.367001 3.51545,7.817359 7.695999,7.817359 4.180558,0 7.695999,-3.450358 7.695999,-7.817359 0,-4.367058 -3.515441,-7.834667 -7.695999,-7.834667 z m 36.607997,0 c -4.180549,0 -7.696,3.467609 -7.696,7.834667 0,1.637595 0.49504,3.139135 1.334666,4.385304 l -5.234665,4.472055 c -2.273306,-0.732217 -4.536597,-1.092028 -6.708,-1.092028 -5.911381,0 -11.944844,2.064081 -17.853332,8.267981 a 1.6641663,1.6641663 0 0 0 -0.03466,2.253391 c 2.071158,2.330044 4.814375,4.316693 7.782665,5.771971 l -4.229331,3.64 c -1.167407,-0.718404 -2.528137,-1.144 -3.969334,-1.144 -4.180548,0 -7.695999,3.46761 -7.695999,7.834665 0,4.367001 3.515451,7.817361 7.695999,7.817361 4.180558,0 7.696,-3.450361 7.696,-7.817361 0,-1.637652 -0.49504,-3.154055 -1.334666,-4.402665 l 5.286672,-4.524028 c 2.237141,0.735322 4.510953,1.161362 6.655998,1.161362 7.557583,0 13.716286,-2.538433 17.991999,-8.458667 a 1.6641663,1.6641663 0 0 0 -0.138669,-2.132028 c -2.40149,-2.527846 -5.02086,-4.431352 -7.695999,-5.771982 l 4.17733,-3.570665 c 1.166589,0.714909 2.529666,1.126693 3.969336,1.126693 4.180556,0 7.695998,-3.450358 7.695998,-7.817359 0,-4.367058 -3.515442,-7.834667 -7.695998,-7.834667 z m -36.607997,3.449361 c 2.558777,0 4.506665,2.012941 4.506665,4.385306 0,2.372308 -1.947888,4.368 -4.506665,4.368 -2.558776,0 -4.506665,-1.995692 -4.506665,-4.368 0,-2.372365 1.947889,-4.385306 4.506665,-4.385306 z m 36.607997,0 c 2.558776,0 4.506667,2.012941 4.506667,4.385306 0,2.372308 -1.947891,4.368 -4.506667,4.368 -2.558777,0 -4.506666,-1.995692 -4.506666,-4.368 0,-2.372365 1.947889,-4.385306 4.506666,-4.385306 z M 37.499995,31.407315 c 4.508885,0 9.660989,1.910105 14.265333,6.222706 -3.541768,4.184293 -7.987759,5.979972 -14.265333,5.979972 -4.436355,0 -10.366841,-2.640215 -14.143999,-6.11864 4.888755,-4.616058 9.384744,-6.084038 14.143999,-6.084038 z m 0,1.109333 c -2.757003,0 -4.992,2.234975 -4.992,4.992011 0,2.757026 2.234997,4.991999 4.992,4.991999 2.757003,0 4.992,-2.234973 4.992,-4.991999 0,-2.757036 -2.234997,-4.992011 -4.992,-4.992011 z m 18.303999,14.35201 c -4.180549,0 -7.696,3.46761 -7.696,7.834665 0,4.367001 3.515451,7.817361 7.696,7.817361 4.180556,0 7.695998,-3.450361 7.695998,-7.817361 0,-4.367055 -3.515442,-7.834665 -7.695998,-7.834665 z M 19.195997,50.31802 c 2.558777,0 4.506665,2.012941 4.506665,4.385303 0,2.37231 -1.947888,4.368 -4.506665,4.368 -2.558776,0 -4.506665,-1.99569 -4.506665,-4.368 0,-2.372362 1.947889,-4.385303 4.506665,-4.385303 z m 36.607997,0 c 2.558776,0 4.506667,2.012941 4.506667,4.385303 0,2.37231 -1.947891,4.368 -4.506667,4.368 -2.558777,0 -4.506666,-1.99569 -4.506666,-4.368 0,-2.372362 1.947889,-4.385303 4.506666,-4.385303 z"
     marker="none"
     visibility="visible"
     display="inline"
     overflow="visible"
     id="path1000" />
</svg>
