<?xml version="1.0" encoding="UTF-8" standalone="no"?>
<svg
   xmlns:dc="http://purl.org/dc/elements/1.1/"
   xmlns:cc="http://creativecommons.org/ns#"
   xmlns:rdf="http://www.w3.org/1999/02/22-rdf-syntax-ns#"
   xmlns:svg="http://www.w3.org/2000/svg"
   xmlns="http://www.w3.org/2000/svg"
   height="75"
   width="75"
   id="svg5359"
   viewBox="0 0 75 75"
   y="0px"
   x="0px"
   version="1.1">
  <metadata
     id="metadata5365">
    <rdf:RDF>
      <cc:Work
         rdf:about="">
        <dc:format>image/svg+xml</dc:format>
        <dc:type
           rdf:resource="http://purl.org/dc/dcmitype/StillImage" />
        <dc:title></dc:title>
      </cc:Work>
    </rdf:RDF>
  </metadata>
  <defs
     id="defs5363" />
  <rect
     y="0"
     x="0"
     height="75"
     width="75"
     id="rect5262"
     style="opacity:0.9;fill:#31ac94;fill-opacity:1;stroke:none;stroke-width:0.74852335;stroke-linecap:round;stroke-linejoin:round;stroke-miterlimit:4;stroke-dasharray:none;stroke-opacity:1" />
  <path
     style="color:#000000;text-indent:0;text-transform:none;direction:ltr;baseline-shift:baseline;display:inline;overflow:visible;visibility:visible;fill:#f1f3f3;fill-opacity:1;stroke:none;stroke-width:0.5777775;enable-background:accumulate"
     d="m 18.420099,12.655557 c -3.794271,0 -6.920082,3.109656 -6.920082,6.961872 0,3.852158 3.125812,6.943799 6.920082,6.943799 3.794276,0 6.920075,-3.091641 6.920075,-6.943799 0,-3.852216 -3.125799,-6.961872 -6.920075,-6.961872 z m 38.159813,0 c -3.794271,0 -6.920076,3.109656 -6.920076,6.961872 0,1.82595 0.718946,3.471402 1.86101,4.707326 l -6.793602,5.8076 c -2.454676,-0.865106 -4.90105,-1.280528 -7.22724,-1.280528 -5.908514,0 -11.775486,1.986919 -17.760938,8.260433 a 0.57823682,0.57720638 0 0 0 -0.01808,0.775492 c 2.398354,2.693368 5.807091,4.959411 9.395407,6.438868 l -6.504509,5.555042 c -1.167515,-0.899773 -2.618505,-1.442884 -4.191799,-1.442884 -3.79427,0 -6.920081,3.109714 -6.920081,6.961872 0,3.852158 3.125811,6.943788 6.920081,6.943788 3.794277,0 6.920076,-3.09163 6.920076,-6.943788 0,-1.828839 -0.715774,-3.485442 -1.86101,-4.725411 l 6.847808,-5.861668 c 0.0052,0 0.01277,0 0.01808,0 2.422067,0.864009 4.893285,1.352693 7.154966,1.352693 7.636866,0 13.563871,-2.45671 17.815141,-8.332592 A 0.57823682,0.57720638 0 0 0 55.26095,37.11226 C 52.36231,34.0665 49.168865,31.936465 45.955877,30.601279 l 6.432243,-5.482935 c 1.167515,0.896942 2.618505,1.442884 4.191798,1.442884 3.794277,0 6.920082,-3.091641 6.920082,-6.943799 0,-3.852216 -3.125805,-6.961872 -6.920082,-6.961872 z M 18.420099,13.86392 c 3.230781,0 5.799857,2.593124 5.799857,5.753509 0,3.160327 -2.569076,5.735435 -5.799857,5.735435 -3.230782,0 -5.799858,-2.575108 -5.799858,-5.735435 0,-3.160385 2.569076,-5.753509 5.799858,-5.753509 z m 38.159813,0 c 3.230787,0 5.799857,2.593124 5.799857,5.753509 0,3.160327 -2.56907,5.735435 -5.799857,5.735435 -3.230776,0 -5.799858,-2.575108 -5.799858,-5.735435 0,-3.160385 2.569082,-5.753509 5.799858,-5.753509 z M 37.500004,30.006111 c 5.299994,0 11.350475,2.282856 16.550375,7.557046 -4.011839,5.283486 -9.343219,7.448823 -16.550375,7.448823 -5.402208,0 -12.396198,-3.207416 -16.478104,-7.502961 5.642228,-5.715554 10.971059,-7.502908 16.478104,-7.502908 z m 0,2.308567 c -2.873871,0 -5.203608,2.325555 -5.203608,5.194341 0,2.868781 2.329737,5.194336 5.203608,5.194336 2.873871,0 5.203609,-2.325555 5.203609,-5.194336 0,-2.868786 -2.329738,-5.194341 -5.203609,-5.194341 z m 19.079908,16.1241 c -3.794271,0 -6.920076,3.109714 -6.920076,6.961872 0,3.852158 3.125805,6.943788 6.920076,6.943788 3.794276,0 6.920081,-3.09163 6.920081,-6.943788 0,-3.852158 -3.125805,-6.961872 -6.920081,-6.961872 z m -38.159813,1.208364 c 3.230781,0 5.799857,2.593181 5.799857,5.753508 0,3.160328 -2.569076,5.735424 -5.799857,5.735424 -3.230782,0 -5.799858,-2.575096 -5.799858,-5.735424 0,-3.160327 2.569076,-5.753508 5.799858,-5.753508 z m 38.159813,0 c 3.230787,0 5.799857,2.593181 5.799857,5.753508 0,3.160328 -2.56907,5.735424 -5.799857,5.735424 -3.230776,0 -5.799858,-2.575096 -5.799858,-5.735424 0,-3.160327 2.569082,-5.753508 5.799858,-5.753508 z"
     marker="none"
     visibility="visible"
     display="inline"
     overflow="visible"
     id="path5351" />
</svg>
